<svg id="Capa_1" data-name="Capa 1" xmlns="http://www.w3.org/2000/svg" viewBox="0 0 3796.97 1224.9"><defs><style>.cls-1{fill:#1a1f71;}</style></defs><path class="cls-1" d="M-182.44-1256.82c9-22.54,17.09-42.9,25.16-63.28q133.53-337.25,267.05-674.5c8-20.1,16-40.18,23.77-60.35,1.72-4.47,3.68-6.89,9.16-6.88q155.93.28,311.83.19a17.63,17.63,0,0,1,2.92.49c.4,4-1.88,7.08-3.25,10.36Q266.39-1603.1,78.46-1155.45,22.27-1021.57-34-887.7c-5.5,13.06-2.23,10.87-16.41,10.88q-149.92.12-299.84,0c-1.67,0-3.34,0-5,0-7.67-.12-7.72-.11-9.74-7.92q-16-61.8-32-123.63L-572.27-1685.4q-19.26-74.37-38.57-148.73a243.22,243.22,0,0,0-11.52-34c-8.6-20.25-22.4-36-40.77-48-20.73-13.48-43-23.88-65.71-33.5-66-28-134.46-48.47-203.88-65.91-14.84-3.73-29.77-7.1-44.72-10.37-4.6-1-6-2.93-4.78-7.59q3-11.58,5.09-23.39c.66-3.77,2.38-5.13,6-4.87,1.66.12,3.33,0,5,0q254.35,0,508.73-.08c28,0,54.21,5.94,78.06,20.68,36,22.24,57.49,55,66.09,95.9,8.77,41.66,16.12,83.61,24,125.45q21.56,114.24,43,228.49,23.55,125,47.14,250.06,7.22,38.24,14.38,76.49C-184.38-1262.77-183.65-1260.91-182.44-1256.82Z" transform="translate(982.64 2083.36)"/><path class="cls-1" d="M910.55-1180.64c25.28,11.54,49.67,23,74.75,32.83a587.38,587.38,0,0,0,177.47,39.91c32,2.12,63.89,3.09,95.78-.42,31.67-3.48,62.2-11.14,90.52-26.2,16.35-8.69,30.81-19.76,42-34.76a87.45,87.45,0,0,0-.29-105.93c-10.12-13.44-22.7-24.32-36.2-34.16-31.07-22.64-65-40.24-99.45-57.08-44.89-22-88.74-45.75-129.26-75.21-31.94-23.22-61.14-49.35-85.63-80.5-30.69-39-50.76-82.69-57.14-132.12-4.87-37.69-2.07-75.16,6.29-112.11,19.85-87.72,68.84-156.18,140.19-209.46,53.79-40.16,114.16-66.61,178.78-83.69,76.29-20.15,153.92-26.69,232.65-22.72,81.41,4.12,160.11,21.05,236.83,48.1,10.57,3.72,8.6,3.88,6.74,12.58q-25.32,118-50.5,236.13c-.34,1.58-.23,3.32-1.73,4.65-3.4.24-6.18-1.84-9.13-3.14a607.31,607.31,0,0,0-188.43-49.31c-40.9-3.92-81.83-4.24-122.44,3.52-21.36,4.09-41.86,10.75-60.8,21.68-15.2,8.77-28.44,19.74-38.26,34.46-18.42,27.6-17.62,58,2.21,84.61,8.84,11.87,19.77,21.59,31.52,30.43,23,17.27,48,31.12,73.24,44.67,40.44,21.73,81.59,42.17,120.9,66,29.39,17.79,57.67,37.13,83.54,59.82,38.11,33.44,68.78,72.31,87,120.1,16.34,42.77,20.54,87.12,17.1,132.54-2.68,35.4-9.52,69.84-21.9,103.12-26.49,71.23-72.34,127.42-133.92,171.19-53,37.69-111.93,62.49-174.67,78.57-82,21-165.29,27.36-249.65,22.61-71.34-4-141.69-14.15-210.82-32.39a562.82,562.82,0,0,1-74.7-24.94c-8.8-3.7-8.86-3.78-6.94-12.76q26.25-123,52.59-245.87A41.3,41.3,0,0,1,910.55-1180.64Z" transform="translate(982.64 2083.36)"/><path class="cls-1" d="M896.94-2060.31c-3.06,14.6-6.14,29.55-9.34,44.47q-32.6,152.19-65.23,304.38-35.43,165.36-70.85,330.73-34.59,161.46-69.16,322.94Q664.09-972.42,645.89-887c-.42,1.95-1.12,3.86-1.36,5.83-.4,3.27-2.13,4.61-5.35,4.44-2-.11-4,0-6,0q-142.92,0-285.83,0c-3.28,0-6.64.62-10.44-1,3.46-16.46,6.9-33,10.44-49.56q33.56-156.57,67.15-313.15,37.67-175.6,75.33-351.2,32.49-151.71,64.83-303.45,17-79.53,34.06-159c1.58-7.36,1.64-7.47,8.9-7.47q146.4,0,292.82,0C892.42-2061.68,894.47-2062,896.94-2060.31Z" transform="translate(982.64 2083.36)"/><path class="cls-1" d="M1713.93-876.78c6-14.43,11.27-27.31,16.65-40.14q188.58-449.5,377.18-899,33-78.67,66-157.35c17.76-42.09,48.17-70.32,92.35-83.14a126.94,126.94,0,0,1,35.44-5.24q128.92,0,257.85,0c7.62,0,7.7.1,9.57,9q13.29,63.48,26.49,127,37.65,179.68,75.32,359.36,34.42,164.57,68.76,329.14,28.5,136.23,57.13,272.44,8.29,39.54,16.48,79.12c.53,2.57.79,5.21,1.18,7.76-3.44,1.89-6.81,1-10,1q-131.41.08-262.84,0a26.67,26.67,0,0,0-4,0c-5.16.81-6.91-1.85-7.84-6.52-3.83-19.24-7.94-38.43-12-57.63q-11.07-52.74-22.16-105.46c-1.6-7.6-1.65-7.68-9.74-7.68q-188.88,0-377.77-.17c-6.26,0-8.53,2.4-10.44,7.73q-27.92,78-56.22,155.79c-1.13,3.13-2.49,6.18-3.42,9.37-1,3.45-3.08,4.89-6.6,4.56-1.33-.13-2.67,0-4,0H1713.93Zm634.41-859.51q-78.89,216.93-157.67,433.9a22.7,22.7,0,0,0-.86,3.84,1.58,1.58,0,0,0,.33.93,8.86,8.86,0,0,0,1,1.06h8.58q115.86,0,231.72,0c11,0,12.18,2.54,9.31-11.2q-17.48-83.45-34.95-166.9c-9.21-44.14-54.77-262.67-54.88-263.22C2349.35-1737,2348.51-1736.75,2348.34-1736.29Z" transform="translate(982.64 2083.36)"/></svg>